<?xml version="1.0" standalone="no"?>
<!DOCTYPE svg PUBLIC "-//W3C//DTD SVG 20010904//EN"
 "http://www.w3.org/TR/2001/REC-SVG-20010904/DTD/svg10.dtd">
<svg version="1.0" xmlns="http://www.w3.org/2000/svg"
 width="1274.000000pt" height="1280.000000pt" viewBox="0 0 1274.000000 1280.000000"
 preserveAspectRatio="xMidYMid meet">
<metadata>
Created by potrace 1.15, written by Peter Selinger 2001-2017
</metadata>
<g transform="translate(0.000000,1280.000000) scale(0.100000,-0.100000)"
fill="#000000" stroke="none">
<path d="M5964 10530 c-44 -5 -163 -22 -265 -40 -383 -65 -412 -79 -454 -218
-50 -162 -183 -417 -302 -577 -119 -160 -269 -282 -398 -325 -95 -32 -208 -26
-283 15 -100 54 -156 132 -243 340 -21 50 -40 90 -42 90 -3 0 -67 -50 -144
-111 -262 -210 -481 -423 -522 -507 -27 -55 -26 -86 3 -211 43 -180 50 -250
50 -491 -1 -276 -13 -360 -73 -480 -49 -99 -122 -174 -211 -218 -59 -29 -73
-32 -160 -32 -89 0 -100 2 -170 36 -41 20 -115 68 -165 107 -62 49 -92 67 -97
59 -4 -7 -32 -81 -62 -165 -87 -238 -154 -482 -171 -623 -11 -89 13 -131 159
-279 143 -146 184 -194 258 -310 131 -202 224 -399 249 -528 27 -143 -46 -302
-168 -366 -52 -26 -146 -44 -272 -50 -190 -10 -217 -29 -208 -145 6 -75 41
-196 157 -531 l81 -235 107 -23 c335 -72 523 -129 693 -210 304 -145 475 -361
439 -554 -24 -126 -84 -206 -268 -359 -68 -56 -120 -105 -115 -109 54 -51 401
-351 476 -411 172 -139 222 -151 363 -87 178 80 491 164 719 194 107 14 128
14 192 0 79 -16 220 -78 295 -128 26 -18 57 -50 70 -73 21 -36 23 -51 22 -165
-2 -142 -16 -255 -45 -366 -33 -127 -21 -133 296 -160 99 -8 259 -16 355 -17
219 -2 246 6 290 92 43 85 148 211 314 376 162 161 281 253 411 315 291 141
512 68 590 -195 13 -44 31 -114 40 -155 17 -74 48 -149 68 -162 22 -14 171 55
494 228 131 70 254 138 274 150 l37 23 5 243 c6 330 42 521 138 736 37 81 125
215 171 259 43 42 143 101 191 114 88 24 276 -61 392 -176 38 -38 82 -85 97
-102 14 -18 32 -33 38 -33 74 0 416 628 437 802 5 43 3 50 -28 86 -101 118
-252 449 -316 692 -31 115 -38 331 -14 415 34 122 95 199 190 244 50 23 67 26
166 25 97 -1 125 -5 235 -39 69 -20 133 -40 144 -43 18 -5 18 4 13 219 -3 124
-10 241 -16 261 -18 58 -91 123 -276 247 -329 221 -481 364 -560 525 -58 118
-75 185 -82 327 -5 107 -4 121 16 163 43 87 194 169 344 186 70 8 85 13 105
36 30 35 25 70 -29 184 -50 105 -83 161 -225 376 -174 264 -190 273 -419 253
-286 -24 -605 32 -843 148 -107 52 -198 135 -247 225 -27 48 -30 61 -30 148 0
89 2 99 33 156 31 57 88 132 190 252 l42 50 -100 67 c-109 73 -299 165 -569
274 l-173 71 -67 -62 c-221 -204 -547 -368 -845 -425 -122 -23 -275 -15 -346
18 -76 36 -112 68 -147 136 -42 80 -53 141 -53 304 0 147 -11 198 -47 217 -30
16 -93 20 -179 12z m866 -1059 c402 -60 710 -171 1070 -385 357 -212 707 -540
967 -906 263 -370 468 -861 527 -1261 83 -566 8 -1251 -189 -1720 -162 -385
-380 -710 -678 -1011 -674 -678 -1665 -1014 -2622 -887 -353 46 -693 154
-1015 321 -867 448 -1482 1289 -1639 2243 -35 217 -44 350 -38 592 13 507 121
931 352 1380 345 670 910 1181 1615 1463 195 77 369 125 580 159 211 34 303
40 625 36 246 -3 338 -7 445 -24z"/>
<path d="M6532 9193 c-26 -10 -36 -52 -42 -173 -7 -136 -21 -179 -77 -232 -45
-43 -93 -58 -189 -58 -198 0 -463 111 -654 274 -30 26 -64 46 -77 46 -52 0
-411 -160 -490 -219 -29 -21 -43 -39 -43 -54 0 -12 26 -53 57 -92 70 -87 96
-144 96 -210 0 -216 -303 -362 -735 -353 -146 3 -158 2 -185 -18 -37 -27 -89
-96 -169 -222 -120 -191 -155 -282 -120 -311 9 -7 45 -20 81 -27 79 -17 150
-51 190 -93 26 -28 30 -41 33 -102 5 -91 -12 -178 -51 -259 -40 -83 -165 -210
-296 -300 -290 -201 -275 -180 -279 -376 -5 -178 -6 -176 116 -143 201 55 324
12 378 -132 27 -72 22 -233 -10 -344 -39 -130 -108 -287 -172 -388 -65 -101
-65 -98 -2 -247 76 -180 208 -390 246 -390 6 0 40 28 74 63 71 70 164 124 232
133 123 17 257 -121 331 -340 41 -122 54 -206 62 -391 6 -169 7 -170 34 -195
25 -23 340 -193 436 -234 50 -22 85 -16 101 19 6 14 21 62 32 107 27 103 49
145 98 190 137 124 387 25 647 -255 47 -51 109 -126 138 -167 29 -41 64 -81
78 -87 47 -24 458 -11 547 18 41 14 49 42 31 122 -8 35 -14 118 -14 189 l0
127 30 32 c36 38 148 94 222 110 42 10 74 10 144 0 122 -16 335 -71 447 -116
112 -45 150 -44 226 9 75 52 340 284 350 307 8 17 -6 35 -96 122 -123 119
-143 157 -136 261 3 53 10 73 41 120 44 66 124 132 227 185 104 54 199 86 383
131 89 21 166 45 177 55 23 21 158 422 167 493 4 41 2 52 -18 76 -22 25 -32
28 -132 35 -194 16 -278 82 -285 224 -3 62 0 84 27 152 33 86 111 229 169 310
20 28 77 93 128 145 137 143 142 160 99 335 -24 98 -90 303 -115 358 -19 40
-46 40 -101 -4 -20 -15 -60 -41 -90 -56 -106 -53 -234 -30 -313 57 -83 92
-107 186 -107 414 1 160 5 203 36 345 19 89 12 119 -45 188 -84 101 -358 333
-394 333 -19 0 -31 -17 -68 -92 -53 -108 -112 -170 -180 -188 -140 -38 -312
63 -447 263 -66 98 -143 248 -172 334 -36 111 -60 123 -322 168 -137 23 -254
31 -285 18z m268 -721 c415 -75 795 -277 1097 -583 178 -181 278 -321 392
-550 108 -217 181 -461 211 -712 16 -128 8 -471 -14 -592 -63 -345 -192 -642
-399 -919 -80 -106 -260 -290 -367 -376 -425 -338 -993 -506 -1518 -449 -728
79 -1356 504 -1680 1137 -147 286 -208 544 -219 918 -9 306 15 479 99 724 108
312 273 575 518 821 318 322 698 524 1093 583 159 24 158 24 422 21 200 -2
273 -7 365 -23z"/>
</g>
</svg>
