<!-- icon666.com - MILLIONS OF FREE VECTOR ICONS --><svg id="Capa_1" enable-background="new 0 0 512 512" viewBox="0 0 512 512" xmlns="http://www.w3.org/2000/svg"><g><path d="m452 94.684v-50.79h-15c-107.879 0-177.035 55.081-181 56.973-3.91-1.866-73.333-56.973-181-56.973h-15v50.79c-31.848 4.743-53.313 10.957-60 12.499v360.923c10.561-1.497 119.255-39.021 249.894-7.178l6.106 4.07 6.106-4.07c130.801-31.884 239.322 5.68 249.894 7.178v-360.923c-7.131-1.644-28.234-7.769-60-12.499zm-422 335.34v-299.27c9.923-2.224 19.948-4.134 30-5.727v278.868h15c33.364 0 65.432 5.133 95.117 15.065-46.083-2.609-93.322 1.076-140.117 11.064zm211-10.874c-43.994-27.189-95.743-42.582-151-44.938v-299.913c90.281 4.855 146.394 50.332 151 52.624zm30-292.227c4.694-2.335 60.746-47.77 151-52.624v299.914c-55.257 2.356-107.006 17.749-151 44.938zm211 303.101c-46.795-9.988-94.035-13.673-140.117-11.064 29.685-9.933 61.753-15.065 95.117-15.065h15v-278.868c10.053 1.593 20.077 3.503 30 5.727z"></path></g></svg>