<svg width="152" height="350" viewBox="0 0 152 350" fill="none" xmlns="http://www.w3.org/2000/svg">
<g opacity="0.4">
<mask id="mask0" mask-type="alpha" maskUnits="userSpaceOnUse" x="0" y="0" width="350" height="350">
<circle cx="175" cy="175" r="175" fill="#C4C4C4"/>
</mask>
<g mask="url(#mask0)">
<path d="M40.8473 3.58948L62.0267 17.2455L62.0417 4.81589L40.8473 -8.85498L19.6528 4.81589L19.6678 17.2455L40.8473 3.58948Z" stroke="#0054A6" stroke-linejoin="bevel"/>
<path d="M40.8473 19.3095L62.0267 32.9655L62.0417 20.536L40.8473 6.86499L19.6528 20.536L19.6678 32.9655L40.8473 19.3095Z" stroke="#0054A6" stroke-linejoin="bevel"/>
<path d="M6.92531 11.771H2.69238V32.9655H6.92531V11.771Z" stroke="#0054A6" stroke-linejoin="bevel"/>
<path d="M15.4077 11.771H11.1748V32.9655H15.4077V11.771Z" stroke="#0054A6" stroke-linejoin="bevel"/>
<path d="M93.8404 11.7708V32.9653H115.05V11.7708H104.445V-9.37884L83.2208 4.24721L62.0413 -9.40869V11.7708H93.8404Z" stroke="#0054A6" stroke-linejoin="bevel"/>
<path d="M19.6546 -19.8186L-1.56978 -33.5493L-22.7493 -19.8335L-9.73647 -11.4425L-22.7493 -3.02158L-1.56978 10.6344L19.6546 -3.00661L6.61185 -11.4425L19.6546 -19.8186Z" stroke="#0054A6" stroke-linejoin="bevel"/>
<path d="M129.873 11.771H125.64V32.9655H129.873V11.771Z" stroke="#0054A6" stroke-linejoin="bevel"/>
<path d="M138.354 11.771H134.122V32.9655H138.354V11.771Z" stroke="#0054A6" stroke-linejoin="bevel"/>
<path d="M146.835 11.771H142.602V32.9655H146.835V11.771Z" stroke="#0054A6" stroke-linejoin="bevel"/>
<path d="M155.318 11.771H151.085V32.9655H155.318V11.771Z" stroke="#0054A6" stroke-linejoin="bevel"/>
<path d="M168.044 -19.8186L146.82 -33.5493L125.64 -19.8335L138.653 -11.4425L125.64 -3.02158L146.82 10.6344L168.044 -3.00661L155.001 -11.4425L168.044 -19.8186Z" stroke="#0054A6" stroke-linejoin="bevel"/>
<path d="M-5.14362 145.713L1.91621 141.166L8.97604 145.713L8.99101 141.57L1.91621 137.023L-5.14362 141.57L-12.2184 137.023L-19.2783 141.57L-26.338 137.023L-33.4128 141.57L-33.3979 145.713L-26.338 141.166L-19.2783 145.713L-12.2184 141.166L-5.14362 145.713Z" stroke="#0054A6" stroke-linejoin="bevel"/>
<path d="M-5.14362 156.273L1.91621 151.726L8.97604 156.273L8.99101 152.13L1.91621 147.583L-5.14362 152.13L-12.2184 147.583L-19.2783 152.13L-26.338 147.583L-33.4128 152.13L-33.3979 156.273L-26.338 151.726L-19.2783 156.273L-12.2184 151.726L-5.14362 156.273Z" stroke="#0054A6" stroke-linejoin="bevel"/>
<path d="M-12.1601 110.22L-33.2798 96.5938H-33.3396V117.803H9.06425V96.5938H9.03436L-12.1601 110.22Z" stroke="#0054A6" stroke-linejoin="bevel"/>
<path fill-rule="evenodd" clip-rule="evenodd" d="M6.55133 78.0019L-0.179438 76.3715L3.45517 70.3886L3.23082 70.1643L-2.75209 73.7689L-4.35253 67.0232H-4.68159L-6.31193 73.754L-12.2201 70.1194L-12.4593 70.3438L-8.83971 76.3267L-15.5854 77.9271V78.2861L-8.85468 79.9164L-12.4893 85.8245L-12.2649 86.0639L-6.28203 82.4442L-4.68159 89.1899H-4.35253L-2.72219 82.4591L3.18595 86.0937L3.42527 85.8694L-0.19441 79.8865L6.55133 78.2861V78.0019Z" stroke="#0054A6" stroke-linejoin="bevel"/>
<path fill-rule="evenodd" clip-rule="evenodd" d="M1.31619 49.7626L-2.22868 48.895L-0.314151 45.799L-0.433835 45.6793L-3.54493 47.5788L-4.38253 44.0339H-4.48724L-5.33982 47.5639L-8.43598 45.6643L-8.57059 45.784L-6.67099 48.895L-10.2009 49.7326V49.8673L-6.65606 50.7199L-8.57059 53.831L-8.45091 53.9506L-5.33982 52.0511L-4.50221 55.596H-4.32273L-3.47016 52.0511L-0.373993 53.9656C-0.330427 53.9296 -0.290383 53.8895 -0.254355 53.8459L-2.13894 50.7349L1.39095 49.8972L1.31619 49.7626Z" stroke="#0054A6" stroke-linejoin="bevel"/>
<path fill-rule="evenodd" clip-rule="evenodd" d="M16.3649 60.7562L12.835 59.8887L14.7346 56.7925L14.6149 56.6729L11.5188 58.5725L10.6662 55.0276H10.4718L9.6192 58.5575L6.50811 56.6579L6.38843 56.7776L8.28803 59.8737L4.74316 60.7263V60.8908L8.28803 61.7434L6.4034 64.8246L6.52304 64.9443L9.63417 63.0447L10.4718 66.5895H10.6363L11.5038 63.0447L14.6 64.9592L14.7196 64.8395L12.8201 61.8331L16.3649 60.9955V60.7562Z" stroke="#0054A6" stroke-linecap="square" stroke-linejoin="bevel"/>
<path d="M30.2572 95.367L51.4367 109.023L51.4516 96.5935L30.2572 82.9077L9.06274 96.5935L9.07772 109.023L30.2572 95.367Z" stroke="#0054A6" stroke-linejoin="bevel"/>
<path d="M72.6603 173.19L93.8398 186.861L93.8548 174.416L72.6603 160.745L51.4509 174.416L51.4809 186.861L72.6603 173.19Z" stroke="#0054A6" stroke-linejoin="bevel"/>
<path d="M72.6603 188.925L93.8398 202.581L93.8548 190.151L72.6603 176.465L51.4509 190.151L51.4809 202.581L72.6603 188.925Z" stroke="#0054A6" stroke-linejoin="bevel"/>
<path d="M78.8991 48.0426V32.9807H57.7046V61.6686H57.7944L78.8692 48.0127L78.8991 48.0426Z" stroke="#0054A6" stroke-linejoin="bevel"/>
<path d="M78.8991 48.0422L78.8692 48.0122L57.7944 61.6682L57.7046 61.7281L78.8692 75.3841L100.094 61.7431L78.8991 48.0422Z" stroke="#0054A6" stroke-linejoin="bevel"/>
<path d="M13.2957 181.386H9.06274V202.581H13.2957V181.386Z" stroke="#0054A6" stroke-linejoin="bevel"/>
<path d="M21.7778 181.386H17.5449V202.581H21.7778V181.386Z" stroke="#0054A6" stroke-linejoin="bevel"/>
<path d="M30.2561 181.386H26.0232V202.581H30.2561V181.386Z" stroke="#0054A6" stroke-linejoin="bevel"/>
<path d="M38.7373 181.386H34.5044V202.581H38.7373V181.386Z" stroke="#0054A6" stroke-linejoin="bevel"/>
<path d="M47.2055 181.386H42.9727V202.581H47.2055V181.386Z" stroke="#0054A6" stroke-linejoin="bevel"/>
<path d="M115.05 122.021V117.788H87.5141L72.6615 102.935L57.6743 117.923L72.6615 132.91L75.0696 130.502H115.05V126.254H79.3025L83.5504 122.021H115.05Z" stroke="#0054A6" stroke-linejoin="bevel"/>
<path d="M115.065 134.734H72.6616V138.967H115.065V134.734Z" stroke="#0054A6" stroke-linejoin="bevel"/>
<path d="M143.261 145.713L150.321 141.166L157.38 145.713V141.57L150.321 137.023L143.246 141.57L136.186 137.023L129.111 141.57L122.051 137.023L114.977 141.57L114.992 145.713L122.051 141.166L129.111 145.713H129.126L136.186 141.166L143.246 145.713H143.261Z" stroke="#0054A6" stroke-linejoin="bevel"/>
<path d="M143.261 156.273L150.321 151.726L157.38 156.273V152.13L150.321 147.583L143.246 152.13L136.186 147.583L129.111 152.13L122.051 147.583L114.977 152.13L114.992 156.273L122.051 151.726L129.111 156.273H129.126L136.186 151.726L143.246 156.273H143.261Z" stroke="#0054A6" stroke-linejoin="bevel"/>
<path d="M125.657 181.386V202.581H146.851V181.386H136.261V160.222L115.037 173.863L93.8574 160.207V181.386H125.657Z" stroke="#0054A6" stroke-linejoin="bevel"/>
<path d="M115.052 96.5798V96.564L115.02 96.5798H115.052Z" stroke="#0054A6" stroke-linejoin="bevel"/>
<path d="M72.6603 75.3845H51.4509V79.6174H72.6603V83.8652H51.4509V88.0982H72.6603V92.346H51.4509V96.5788H72.6603H72.7351L72.6603 96.5341L93.8847 82.8931L115.049 96.5641V75.3845H72.6603Z" stroke="#0054A6" stroke-linejoin="bevel"/>
<path d="M51.4516 149.797L30.2273 136.066L9.06274 149.767L22.0606 158.158L9.06274 166.594L30.2273 180.235L51.4516 166.609L38.4239 158.173L51.4516 149.797Z" stroke="#0054A6" stroke-linejoin="bevel"/>
<path d="M30.2584 109.023H30.2435L16.0639 118.207L16.0042 118.237L44.5127 118.252L30.2584 109.023Z" stroke="#0054A6" stroke-linejoin="bevel"/>
<path d="M136.23 110.22L115.111 96.5938H115.051V117.803H157.455V96.5938H157.425L136.23 110.22Z" stroke="#0054A6" stroke-linejoin="bevel"/>
<path fill-rule="evenodd" clip-rule="evenodd" d="M154.958 78.0019L148.212 76.3715L151.847 70.3886L151.623 70.1643L145.64 73.7689L144.039 67.0232H143.71L142.095 73.7989L136.187 70.1643L135.962 70.3886L139.567 76.3715L132.821 77.9719V78.2861L139.567 79.9164L135.962 85.7647L136.202 86.004L142.11 82.3843L143.71 89.1301H144.039L145.685 82.3993L151.578 86.0339L151.817 85.8096L148.197 79.8267L154.943 78.2263L154.958 78.0019Z" stroke="#0054A6" stroke-linejoin="bevel"/>
<path fill-rule="evenodd" clip-rule="evenodd" d="M149.708 49.7626L146.163 48.895L148.078 45.799L147.958 45.6793L144.847 47.5788L144.009 44.0339H143.83L142.977 47.5639L139.881 45.6643L139.762 45.784L141.661 48.895L138.116 49.7326V49.8673L141.646 50.7199L139.747 53.831L139.866 53.9506L142.962 52.0511L143.815 55.596H143.979L144.832 52.0511L147.943 53.9656L148.063 53.8459L146.163 50.7349L149.708 49.8972V49.7626Z" stroke="#0054A6" stroke-linejoin="bevel"/>
<path fill-rule="evenodd" clip-rule="evenodd" d="M134.616 60.7562L131.071 59.8887L132.986 56.7925L132.866 56.6729L129.755 58.5725L128.918 55.0276H128.753L127.886 58.5575L124.789 56.6579L124.67 56.7776L126.569 59.8737L123.024 60.7263V60.8908L126.554 61.7434L124.685 64.8246L124.804 64.9443L127.915 63.0447L128.753 66.5895H128.918L129.785 63.0447L132.881 64.9592L133.001 64.8395L131.101 61.8331L134.646 60.9955L134.616 60.7562Z" stroke="#0054A6" stroke-linejoin="bevel"/>
<path d="M37.6682 44.0202L30.2542 36.6062L22.8401 44.0201L30.2542 51.4341L37.6682 44.0202Z" stroke="#0054A6" stroke-linejoin="bevel"/>
<path d="M26.6681 315.329L33.728 310.782L40.7878 315.329V311.186L33.728 306.624L26.6532 311.186L19.5934 306.624L12.5336 311.186L5.45876 306.624L-1.60107 311.186V315.329L5.45876 310.782L12.5186 315.329H12.5336L19.5934 310.782L26.6532 315.329H26.6681Z" stroke="#0054A6" stroke-linejoin="bevel"/>
<path d="M26.6681 325.888L33.728 321.341L40.7878 325.888V321.745L33.728 317.183L26.6532 321.745L19.5934 317.183L12.5336 321.745L5.45876 317.183L-1.60107 321.745V325.888L5.45876 321.341L12.5186 325.888H12.5336L19.5934 321.341L26.6532 325.888H26.6681Z" stroke="#0054A6" stroke-linejoin="bevel"/>
<path d="M9.06503 350.987V372.181H30.2744V350.987H19.6697V329.837L-1.55464 343.463L-22.7341 329.822V350.987H9.06503Z" stroke="#0054A6" stroke-linejoin="bevel"/>
<path d="M19.6369 279.82L-1.48272 266.209H-1.52759V287.403H40.8613V266.209H40.8463L19.6369 279.82Z" stroke="#0054A6" stroke-linejoin="bevel"/>
<path fill-rule="evenodd" clip-rule="evenodd" d="M38.3662 247.617L31.6205 245.972L35.2551 240.079L35.0308 239.839L29.0479 243.459L27.4474 236.713H27.1184L25.488 243.459L19.5949 239.824L19.3556 240.049L22.9752 246.032L16.2295 247.632V247.961L22.9752 249.592L19.3406 255.574L19.5649 255.799L25.5478 252.194L27.1483 258.94H27.4773L29.1077 252.194L35.0008 255.844L35.2402 255.604L31.6355 249.622L38.3812 248.021L38.3662 247.617Z" stroke="#0054A6" stroke-linejoin="bevel"/>
<path fill-rule="evenodd" clip-rule="evenodd" d="M33.1156 219.363L29.5856 218.511L31.4852 215.414L31.3655 215.28L28.2545 217.179L27.4168 213.649H27.2523L26.3848 217.194L23.2886 215.28L23.1689 215.399L25.0685 218.511L21.5237 219.348V219.528L25.0685 220.38L23.154 223.476L23.2737 223.596L26.3848 221.711L27.2224 225.241H27.3869L28.2545 221.696L31.3506 223.611L31.4703 223.491L29.5707 220.38L33.1156 219.542V219.363Z" stroke="#0054A6" stroke-linejoin="bevel"/>
<path fill-rule="evenodd" clip-rule="evenodd" d="M18.0542 230.356L14.5242 229.504L16.4537 226.363L16.349 226.228L13.2379 228.128L12.3854 224.583H12.2208L11.3683 228.128L8.27211 226.213L8.1375 226.333L10.0371 229.444L6.49219 230.282V230.461L10.0371 231.314L8.12252 234.41L8.24221 234.529L11.3533 232.645L12.1909 236.175H12.3704L13.223 232.63L16.3191 234.544L16.4388 234.425L14.5392 231.314L18.0841 230.476L18.0542 230.356Z" stroke="#0054A6" stroke-linejoin="bevel"/>
<path fill-rule="evenodd" clip-rule="evenodd" d="M48.1783 230.357L44.6334 229.504L46.548 226.408L46.4283 226.273L43.3172 228.173L42.4796 224.628H42.3151L41.4475 228.173L38.3514 226.258L38.2317 226.378L40.1313 229.489L36.5864 230.327V230.506L40.1164 231.359L38.2168 234.455L38.3364 234.575L41.4326 232.69L42.2851 236.22H42.4497L43.3023 232.675L46.4134 234.59L46.533 234.47L44.6334 231.359L48.1783 230.521V230.357Z" stroke="#0054A6" stroke-linecap="square" stroke-linejoin="bevel"/>
<path d="M62.071 264.968L83.2505 278.624L83.2654 266.194L62.071 252.523L40.8616 266.194L40.8765 278.624L62.071 264.968Z" stroke="#0054A6" stroke-linejoin="bevel"/>
<path d="M104.461 342.805L125.64 356.461L125.67 344.032L104.461 330.361L83.2661 344.032L83.281 356.461L104.461 342.805Z" stroke="#0054A6" stroke-linejoin="bevel"/>
<path d="M104.461 358.525L125.64 372.181L125.67 359.752L104.461 346.081L83.2661 359.752L83.281 372.181L104.461 358.525Z" stroke="#0054A6" stroke-linejoin="bevel"/>
<path d="M110.714 217.643V202.595H89.5046V231.284H89.5944L110.684 217.628L110.714 217.643Z" stroke="#0054A6" stroke-linejoin="bevel"/>
<path d="M110.714 217.643L110.684 217.628L89.5944 231.284L89.5046 231.329L110.684 245L131.908 231.359L110.714 217.643Z" stroke="#0054A6" stroke-linejoin="bevel"/>
<path d="M146.863 291.636V287.388H119.312L104.459 272.536L89.4722 287.523L104.459 302.525L106.867 300.102H146.863V295.869H111.115L115.348 291.636H146.863Z" stroke="#0054A6" stroke-linejoin="bevel"/>
<path d="M146.866 304.35H104.462V308.583H146.866V304.35Z" stroke="#0054A6" stroke-linejoin="bevel"/>
<path d="M175.059 315.329L182.119 310.782L189.178 315.329L189.193 311.186L182.119 306.624L175.059 311.186L167.984 306.624L160.924 311.186L153.864 306.624L146.79 311.186V315.329L153.864 310.782L160.909 315.329H160.924L167.984 310.782L175.044 315.329H175.059Z" stroke="#0054A6" stroke-linejoin="bevel"/>
<path d="M175.059 325.888L182.119 321.341L189.178 325.888L189.193 321.745L182.119 317.183L175.059 321.745L167.984 317.183L160.924 321.745L153.864 317.183L146.79 321.745V325.888L153.864 321.341L160.909 325.888H160.924L167.984 321.341L175.044 325.888H175.059Z" stroke="#0054A6" stroke-linejoin="bevel"/>
<path d="M157.47 350.987V372.181H178.664V350.987H168.059V329.837L146.835 343.463L125.67 329.822V350.987H157.47Z" stroke="#0054A6" stroke-linejoin="bevel"/>
<path d="M146.867 266.195V266.164L146.821 266.195H146.867Z" stroke="#0054A6" stroke-linejoin="bevel"/>
<path d="M104.461 245H83.2661V249.233H104.461V253.465H83.2661V257.713H104.461V261.946H83.2661V266.194H104.461H104.535L104.461 266.149L125.685 252.508L146.864 266.164V245H104.461Z" stroke="#0054A6" stroke-linejoin="bevel"/>
<path d="M83.2654 319.397L62.0411 305.681L40.8616 319.382L53.8744 327.773L40.8616 336.194L62.0411 349.85L83.2654 336.224L70.2227 327.773L83.2654 319.397Z" stroke="#0054A6" stroke-linejoin="bevel"/>
<path d="M62.0725 278.639L62.0575 278.624L47.878 287.808L47.8032 287.852L76.3267 287.867L62.0725 278.639Z" stroke="#0054A6" stroke-linejoin="bevel"/>
<path d="M168.044 279.82L146.924 266.209H146.864V287.403H189.268V266.209H189.238L168.044 279.82Z" stroke="#0054A6" stroke-linejoin="bevel"/>
<path d="M69.4888 213.645L62.0747 206.231L54.6607 213.645L62.0747 221.059L69.4888 213.645Z" stroke="#0054A6" stroke-linejoin="bevel"/>
</g>
</g>
</svg>
