<svg width="529" height="360" viewBox="0 0 529 360" fill="none" xmlns="http://www.w3.org/2000/svg">
<g opacity="0.4">
<mask id="mask0" mask-type="alpha" maskUnits="userSpaceOnUse" x="0" y="0" width="634" height="634">
<circle cx="317" cy="317" r="317" fill="#C4C4C4"/>
</mask>
<g mask="url(#mask0)">
<path d="M73.9915 6.50196L112.357 31.2388L112.384 8.72352L73.9915 -16.0403L35.5994 8.72352L35.6264 31.2388L73.9915 6.50196Z" stroke="#0054A6" stroke-linejoin="bevel"/>
<path d="M73.9915 34.9777L112.357 59.7146L112.384 37.1993L73.9915 12.4353L35.5994 37.1993L35.6264 59.7146L73.9915 34.9777Z" stroke="#0054A6" stroke-linejoin="bevel"/>
<path d="M12.5439 21.3223H4.87622V59.7146H12.5439V21.3223Z" stroke="#0054A6" stroke-linejoin="bevel"/>
<path d="M27.909 21.3223H20.2415V59.7146H27.909V21.3223Z" stroke="#0054A6" stroke-linejoin="bevel"/>
<path d="M169.985 21.3221V59.7144H208.404V21.3221H189.195V-16.9889L150.748 7.69372L112.383 -17.043V21.3221H169.985Z" stroke="#0054A6" stroke-linejoin="bevel"/>
<path d="M35.6023 -35.8997L-2.84409 -60.772L-41.2092 -35.9268L-17.6375 -20.7271L-41.2092 -5.47316L-2.84409 19.2637L35.6023 -5.44604L11.9763 -20.7271L35.6023 -35.8997Z" stroke="#0054A6" stroke-linejoin="bevel"/>
<path d="M342.79 6.50196L381.155 31.2388L381.209 8.72352L342.79 -16.0403L304.398 8.72352L304.425 31.2388L342.79 6.50196Z" stroke="#0054A6" stroke-linejoin="bevel"/>
<path d="M342.79 34.9777L381.155 59.7146L381.209 37.1993L342.79 12.4353L304.398 37.1993L304.425 59.7146L342.79 34.9777Z" stroke="#0054A6" stroke-linejoin="bevel"/>
<path d="M235.256 21.3223H227.589V59.7146H235.256V21.3223Z" stroke="#0054A6" stroke-linejoin="bevel"/>
<path d="M250.619 21.3223H242.951V59.7146H250.619V21.3223Z" stroke="#0054A6" stroke-linejoin="bevel"/>
<path d="M265.981 21.3223H258.314V59.7146H265.981V21.3223Z" stroke="#0054A6" stroke-linejoin="bevel"/>
<path d="M281.346 21.3223H273.679V59.7146H281.346V21.3223Z" stroke="#0054A6" stroke-linejoin="bevel"/>
<path d="M296.704 21.3223H289.037V59.7146H296.704V21.3223Z" stroke="#0054A6" stroke-linejoin="bevel"/>
<path d="M438.816 21.3221V59.7144H477.208V21.3221H457.998V-16.9889L419.552 7.69372L381.214 -17.043V21.3221H438.816Z" stroke="#0054A6" stroke-linejoin="bevel"/>
<path d="M304.4 -35.8997L265.954 -60.772L227.589 -35.9268L251.161 -20.7271L227.589 -5.47316L265.954 19.2637L304.4 -5.44604L280.774 -20.7271L304.4 -35.8997Z" stroke="#0054A6" stroke-linejoin="bevel"/>
<path d="M504.084 21.3223H496.417V59.7146H504.084V21.3223Z" stroke="#0054A6" stroke-linejoin="bevel"/>
<path d="M519.446 21.3223H511.779V59.7146H519.446V21.3223Z" stroke="#0054A6" stroke-linejoin="bevel"/>
<path d="M534.807 21.3223H527.14V59.7146H534.807V21.3223Z" stroke="#0054A6" stroke-linejoin="bevel"/>
<path d="M573.201 -35.8997L534.755 -60.772L496.417 -35.9268L519.961 -20.7271L496.417 -5.47316L534.755 19.2637L573.201 -5.44604L549.602 -20.7271L573.201 -35.8997Z" stroke="#0054A6" stroke-linejoin="bevel"/>
<path d="M-9.31845 263.95L3.46993 255.713L16.2583 263.95L16.2854 256.444L3.46993 248.208L-9.31845 256.444L-22.1339 248.208L-34.9223 256.444L-47.7106 248.208L-60.5261 256.444L-60.499 263.95L-47.7106 255.713L-34.9223 263.95L-22.1339 255.713L-9.31845 263.95Z" stroke="#0054A6" stroke-linejoin="bevel"/>
<path d="M-9.31845 283.077L3.46993 274.841L16.2583 283.077L16.2854 275.572L3.46993 267.336L-9.31845 275.572L-22.1339 267.336L-34.9223 275.572L-47.7106 267.336L-60.5261 275.572L-60.499 283.077L-47.7106 274.841L-34.9223 283.077L-22.1339 274.841L-9.31845 283.077Z" stroke="#0054A6" stroke-linejoin="bevel"/>
<path d="M-22.0272 199.655L-60.2839 174.973H-60.3923V213.392H16.4192V174.973H16.3651L-22.0272 199.655Z" stroke="#0054A6" stroke-linejoin="bevel"/>
<path fill-rule="evenodd" clip-rule="evenodd" d="M11.8668 141.295L-0.325533 138.341L6.25829 127.504L5.8519 127.098L-4.98571 133.627L-7.88479 121.408H-8.48086L-11.4341 133.6L-22.1363 127.016L-22.5697 127.423L-16.013 138.26L-28.2324 141.159V141.81L-16.0401 144.763L-22.6239 155.465L-22.2175 155.899L-11.3799 149.342L-8.48086 161.561H-7.88479L-4.93155 149.369L5.77062 155.953L6.20414 155.546L-0.352654 144.709L11.8668 141.81V141.295Z" stroke="#0054A6" stroke-linejoin="bevel"/>
<path fill-rule="evenodd" clip-rule="evenodd" d="M2.38489 90.1415L-4.03638 88.57L-0.56835 82.9616L-0.785148 82.7448L-6.42067 86.1857L-7.93793 79.7644H-8.1276L-9.67198 86.1587L-15.2805 82.7177L-15.5243 82.9345L-12.0833 88.57L-18.4775 90.0872V90.3311L-12.0563 91.8755L-15.5243 97.5111L-15.3075 97.7278L-9.67198 94.2869L-8.15472 100.708H-7.82961L-6.28523 94.2869L-0.676749 97.7549C-0.597833 97.6896 -0.525296 97.617 -0.460033 97.5381L-3.87382 91.9026L2.52033 90.3854L2.38489 90.1415Z" stroke="#0054A6" stroke-linejoin="bevel"/>
<path fill-rule="evenodd" clip-rule="evenodd" d="M29.6431 110.056L23.2489 108.484L26.6898 102.876L26.4731 102.659L20.8647 106.1L19.3203 99.6787H18.968L17.4237 106.073L11.7881 102.632L11.5713 102.849L15.0123 108.457L8.59106 110.002V110.3L15.0123 111.844L11.5985 117.425L11.8152 117.642L17.4508 114.201L18.968 120.622H19.266L20.8375 114.201L26.446 117.669L26.6627 117.452L23.2218 112.006L29.6431 110.489V110.056Z" stroke="#0054A6" stroke-linecap="square" stroke-linejoin="bevel"/>
<path d="M54.8086 172.751L93.1738 197.488L93.2008 174.972L54.8086 150.182L16.4164 174.972L16.4435 197.488L54.8086 172.751Z" stroke="#0054A6" stroke-linejoin="bevel"/>
<path d="M131.619 313.721L169.985 338.485L170.012 315.942L131.619 291.178L93.2001 315.942L93.2543 338.485L131.619 313.721Z" stroke="#0054A6" stroke-linejoin="bevel"/>
<path d="M131.619 342.224L169.985 366.961L170.012 344.446L131.619 319.655L93.2001 344.446L93.2543 366.961L131.619 342.224Z" stroke="#0054A6" stroke-linejoin="bevel"/>
<path d="M142.921 87.0255V59.7419H104.528V111.708H104.691L142.867 86.9712L142.921 87.0255Z" stroke="#0054A6" stroke-linejoin="bevel"/>
<path d="M142.921 87.0252L142.867 86.9709L104.691 111.708L104.528 111.816L142.867 136.553L181.313 111.843L142.921 87.0252Z" stroke="#0054A6" stroke-linejoin="bevel"/>
<path d="M24.084 328.568H16.4164V366.96H24.084V328.568Z" stroke="#0054A6" stroke-linejoin="bevel"/>
<path d="M39.4492 328.568H31.7816V366.96H39.4492V328.568Z" stroke="#0054A6" stroke-linejoin="bevel"/>
<path d="M54.8073 328.568H47.1396V366.96H54.8073V328.568Z" stroke="#0054A6" stroke-linejoin="bevel"/>
<path d="M70.1695 328.568H62.502V366.96H70.1695V328.568Z" stroke="#0054A6" stroke-linejoin="bevel"/>
<path d="M85.5097 328.568H77.8422V366.96H85.5097V328.568Z" stroke="#0054A6" stroke-linejoin="bevel"/>
<path d="M208.405 221.032V213.365H158.525L131.621 186.46L104.473 213.608L131.621 240.757L135.983 236.395H208.405V228.7H143.651L151.345 221.032H208.405Z" stroke="#0054A6" stroke-linejoin="bevel"/>
<path d="M208.434 244.062H131.622V251.73H208.434V244.062Z" stroke="#0054A6" stroke-linejoin="bevel"/>
<path d="M259.507 263.95L272.295 255.713L285.084 263.95V256.444L272.295 248.208L259.48 256.444L246.691 248.208L233.876 256.444L221.087 248.208L208.272 256.444L208.299 263.95L221.087 255.713L233.876 263.95H233.903L246.691 255.713L259.48 263.95H259.507Z" stroke="#0054A6" stroke-linejoin="bevel"/>
<path d="M259.507 283.077L272.295 274.841L285.084 283.077V275.572L272.295 267.336L259.48 275.572L246.691 267.336L233.876 275.572L221.087 267.336L208.272 275.572L208.299 283.077L221.087 274.841L233.876 283.077H233.903L246.691 274.841L259.48 283.077H259.507Z" stroke="#0054A6" stroke-linejoin="bevel"/>
<path d="M227.618 328.569V366.961H266.01V328.569H246.828V290.23L208.381 314.94L170.016 290.203V328.569H227.618Z" stroke="#0054A6" stroke-linejoin="bevel"/>
<path d="M208.406 174.947V174.919L208.35 174.947H208.406Z" stroke="#0054A6" stroke-linejoin="bevel"/>
<path d="M131.619 136.554H93.2001V144.221H131.619V151.916H93.2001V159.584H131.619V167.278H93.2001V174.946H131.619H131.755L131.619 174.865L170.066 150.155L208.404 174.919V136.554H131.619Z" stroke="#0054A6" stroke-linejoin="bevel"/>
<path d="M93.2008 271.346L54.7544 246.474L16.4164 271.292L39.9611 286.492L16.4164 301.773L54.7544 326.482L93.2008 301.8L69.6019 286.519L93.2008 271.346Z" stroke="#0054A6" stroke-linejoin="bevel"/>
<path d="M54.811 197.488H54.7838L29.0987 214.123L28.9904 214.178L80.6315 214.205L54.811 197.488Z" stroke="#0054A6" stroke-linejoin="bevel"/>
<path d="M246.772 199.655L208.516 174.973H208.407V213.392H285.219V174.973H285.165L246.772 199.655Z" stroke="#0054A6" stroke-linejoin="bevel"/>
<path fill-rule="evenodd" clip-rule="evenodd" d="M280.694 141.295L268.475 138.341L275.059 127.504L274.652 127.098L263.815 133.627L260.916 121.408H260.32L257.394 133.681L246.691 127.098L246.285 127.504L252.815 138.341L240.595 141.241V141.81L252.815 144.763L246.285 155.357L246.718 155.79L257.421 149.233L260.32 161.453H260.916L263.896 149.26L274.571 155.844L275.005 155.438L268.448 144.6L280.667 141.701L280.694 141.295Z" stroke="#0054A6" stroke-linejoin="bevel"/>
<path fill-rule="evenodd" clip-rule="evenodd" d="M271.185 90.1415L264.763 88.57L268.231 82.9616L268.015 82.7448L262.379 86.1857L260.862 79.7644H260.537L258.992 86.1587L253.384 82.7177L253.167 82.9345L256.608 88.57L250.187 90.0872V90.3311L256.581 91.8755L253.14 97.5111L253.357 97.7278L258.965 94.2869L260.51 100.708H260.808L262.352 94.2869L267.988 97.7549L268.204 97.5381L264.763 91.9026L271.185 90.3854V90.1415Z" stroke="#0054A6" stroke-linejoin="bevel"/>
<path fill-rule="evenodd" clip-rule="evenodd" d="M243.847 110.056L237.426 108.484L240.894 102.876L240.677 102.659L235.041 106.1L233.524 99.6787H233.226L231.655 106.073L226.046 102.632L225.829 102.849L229.27 108.457L222.849 110.002V110.3L229.243 111.844L225.856 117.425L226.073 117.642L231.709 114.201L233.226 120.622H233.524L235.095 114.201L240.704 117.669L240.921 117.452L237.48 112.006L243.901 110.489L243.847 110.056Z" stroke="#0054A6" stroke-linejoin="bevel"/>
<path fill-rule="evenodd" clip-rule="evenodd" d="M298.47 110.056L292.048 108.484L295.516 102.876L295.3 102.659L289.664 106.1L288.147 99.6787H287.822L286.277 106.073L280.669 102.632L280.452 102.849L283.866 108.457L277.472 110.002V110.3L283.893 111.844L280.398 117.425L280.615 117.642L286.25 114.201L287.767 120.622H288.092L289.637 114.201L295.245 117.669L295.462 117.452L292.048 112.006L298.442 110.489L298.47 110.056Z" stroke="#0054A6" stroke-linecap="square" stroke-linejoin="bevel"/>
<path d="M68.2331 79.7395L54.8031 66.3096L41.3732 79.7395L54.8032 93.1695L68.2331 79.7395Z" stroke="#0054A6" stroke-linejoin="bevel"/>
<path d="M323.611 172.751L361.976 197.488L362.031 174.972L323.611 150.182L285.219 174.972L285.246 197.488L323.611 172.751Z" stroke="#0054A6" stroke-linejoin="bevel"/>
<path d="M400.423 313.721L438.788 338.485L438.815 315.942L400.423 291.178L362.031 315.942L362.058 338.485L400.423 313.721Z" stroke="#0054A6" stroke-linejoin="bevel"/>
<path d="M400.423 342.224L438.788 366.961L438.815 344.446L400.423 319.655L362.031 344.446L362.058 366.961L400.423 342.224Z" stroke="#0054A6" stroke-linejoin="bevel"/>
<path d="M411.72 87.0255V59.7419H373.328V111.708H373.491L411.693 86.9712L411.72 87.0255Z" stroke="#0054A6" stroke-linejoin="bevel"/>
<path d="M411.72 87.0252L411.693 86.9709L373.491 111.708L373.328 111.816L411.693 136.553L450.14 111.843L411.72 87.0252Z" stroke="#0054A6" stroke-linejoin="bevel"/>
<path d="M292.887 328.568H285.219V366.96H292.887V328.568Z" stroke="#0054A6" stroke-linejoin="bevel"/>
<path d="M308.249 328.568H300.581V366.96H308.249V328.568Z" stroke="#0054A6" stroke-linejoin="bevel"/>
<path d="M323.607 328.568H315.939V366.96H323.607V328.568Z" stroke="#0054A6" stroke-linejoin="bevel"/>
<path d="M338.972 328.568H331.304V366.96H338.972V328.568Z" stroke="#0054A6" stroke-linejoin="bevel"/>
<path d="M354.337 328.568H346.67V366.96H354.337V328.568Z" stroke="#0054A6" stroke-linejoin="bevel"/>
<path d="M477.231 221.032V213.365H427.323L400.419 186.46L373.271 213.608L400.419 240.757L404.781 236.395H477.231V228.7H412.449L420.143 221.032H477.231Z" stroke="#0054A6" stroke-linejoin="bevel"/>
<path d="M477.233 244.062H400.422V251.73H477.233V244.062Z" stroke="#0054A6" stroke-linejoin="bevel"/>
<path d="M528.307 263.95L541.096 255.713L553.884 263.95V256.444L541.096 248.208L528.28 256.444L515.492 248.208L502.703 256.444L489.888 248.208L477.1 256.444V263.95L489.888 255.713L502.676 263.95H502.703L515.492 255.713L528.28 263.95H528.307Z" stroke="#0054A6" stroke-linejoin="bevel"/>
<path d="M528.307 283.077L541.096 274.841L553.884 283.077V275.572L541.096 267.336L528.28 275.572L515.492 267.336L502.703 275.572L489.888 267.336L477.1 275.572V283.077L489.888 274.841L502.676 283.077H502.703L515.492 274.841L528.28 283.077H528.307Z" stroke="#0054A6" stroke-linejoin="bevel"/>
<path d="M496.418 328.569V366.961H534.837V328.569H515.627V290.23L477.181 314.94L438.816 290.203V328.569H496.418Z" stroke="#0054A6" stroke-linejoin="bevel"/>
<path d="M477.237 174.947V174.919L477.153 174.947H477.237Z" stroke="#0054A6" stroke-linejoin="bevel"/>
<path d="M400.423 136.554H362.031V144.221H400.423V151.916H362.031V159.584H400.423V167.278H362.031V174.946H400.423H400.558L400.423 174.865L438.869 150.155L477.235 174.919V136.554H400.423Z" stroke="#0054A6" stroke-linejoin="bevel"/>
<path d="M362.031 271.346L323.584 246.474L285.219 271.292L308.791 286.492L285.219 301.773L323.584 326.482L362.031 301.8L338.405 286.519L362.031 271.346Z" stroke="#0054A6" stroke-linejoin="bevel"/>
<path d="M323.611 197.488H323.584L297.898 214.123L297.79 214.178L349.431 214.205L323.611 197.488Z" stroke="#0054A6" stroke-linejoin="bevel"/>
<path d="M515.571 199.655L477.315 174.973H477.233V213.392H554.018V174.973H553.991L515.571 199.655Z" stroke="#0054A6" stroke-linejoin="bevel"/>
<path fill-rule="evenodd" clip-rule="evenodd" d="M549.493 141.295L537.273 138.341L543.857 127.504L543.451 127.098L532.613 133.627L529.714 121.408H529.118L526.165 133.6L515.49 127.016L515.056 127.423L521.586 138.26L509.394 141.159V141.81L521.613 144.763L515.029 155.465L515.435 155.899L526.273 149.342L529.172 161.561H529.768L532.721 149.369L543.397 155.953L543.83 155.546L537.273 144.709L549.466 141.81L549.493 141.295Z" stroke="#0054A6" stroke-linejoin="bevel"/>
<path fill-rule="evenodd" clip-rule="evenodd" d="M539.983 90.1415L533.562 88.57L537.03 82.9616L536.813 82.7448L531.177 86.1857L529.66 79.7644H529.362L527.791 86.1587L522.182 82.7177L521.965 82.9345L525.406 88.57L518.985 90.0872V90.3311L525.379 91.8755L521.938 97.5111L522.155 97.7278L527.791 94.2869L529.308 100.708H529.606L531.177 94.2869L536.786 97.7549L537.003 97.5381L533.562 91.9026L539.983 90.3854V90.1415Z" stroke="#0054A6" stroke-linejoin="bevel"/>
<path fill-rule="evenodd" clip-rule="evenodd" d="M512.7 110.056L506.306 108.484L509.747 102.876L509.53 102.659L503.949 106.1L502.405 99.6787H502.107L500.562 106.073L494.927 102.632L494.71 102.849L498.151 108.457L491.729 110.002V110.3L498.151 111.844L494.656 117.425C494.735 117.491 494.807 117.563 494.872 117.642L500.508 114.201L502.025 120.622H502.323L503.895 114.201L509.503 117.669L509.72 117.452L506.279 112.006L512.7 110.489V110.056Z" stroke="#0054A6" stroke-linejoin="bevel"/>
<path d="M337.043 79.7449L323.613 66.3149L310.183 79.7448L323.613 93.1748L337.043 79.7449Z" stroke="#0054A6" stroke-linejoin="bevel"/>
</g>
</g>
</svg>
